<mxfile host="app.diagrams.net" modified="2023-11-11T16:53:59.788Z" agent="Mozilla/5.0 (Windows NT 10.0; Win64; x64) AppleWebKit/537.36 (KHTML, like Gecko) Chrome/119.0.0.0 Safari/537.36" etag="xDHMx1HGS8Ecvy4sC457" version="22.1.0" type="github">
  <diagram id="R2lEEEUBdFMjLlhIrx00" name="Page-1">
    <mxGraphModel dx="819" dy="422" grid="1" gridSize="10" guides="1" tooltips="1" connect="1" arrows="1" fold="1" page="1" pageScale="1" pageWidth="850" pageHeight="1100" math="0" shadow="0" extFonts="Permanent Marker^https://fonts.googleapis.com/css?family=Permanent+Marker">
      <root>
        <mxCell id="0" />
        <mxCell id="1" parent="0" />
        <mxCell id="qWBB2-18Onvp6dPhCP8b-1" value="Student" style="shape=table;startSize=30;container=1;collapsible=1;childLayout=tableLayout;fixedRows=1;rowLines=0;fontStyle=1;align=center;resizeLast=1;html=1;" vertex="1" parent="1">
          <mxGeometry x="120" y="50" width="180" height="180" as="geometry" />
        </mxCell>
        <mxCell id="qWBB2-18Onvp6dPhCP8b-2" value="" style="shape=tableRow;horizontal=0;startSize=0;swimlaneHead=0;swimlaneBody=0;fillColor=none;collapsible=0;dropTarget=0;points=[[0,0.5],[1,0.5]];portConstraint=eastwest;top=0;left=0;right=0;bottom=1;" vertex="1" parent="qWBB2-18Onvp6dPhCP8b-1">
          <mxGeometry y="30" width="180" height="30" as="geometry" />
        </mxCell>
        <mxCell id="qWBB2-18Onvp6dPhCP8b-3" value="PK" style="shape=partialRectangle;connectable=0;fillColor=none;top=0;left=0;bottom=0;right=0;fontStyle=1;overflow=hidden;whiteSpace=wrap;html=1;" vertex="1" parent="qWBB2-18Onvp6dPhCP8b-2">
          <mxGeometry width="30" height="30" as="geometry">
            <mxRectangle width="30" height="30" as="alternateBounds" />
          </mxGeometry>
        </mxCell>
        <mxCell id="qWBB2-18Onvp6dPhCP8b-4" value="StudentID" style="shape=partialRectangle;connectable=0;fillColor=none;top=0;left=0;bottom=0;right=0;align=left;spacingLeft=6;fontStyle=5;overflow=hidden;whiteSpace=wrap;html=1;" vertex="1" parent="qWBB2-18Onvp6dPhCP8b-2">
          <mxGeometry x="30" width="150" height="30" as="geometry">
            <mxRectangle width="150" height="30" as="alternateBounds" />
          </mxGeometry>
        </mxCell>
        <mxCell id="qWBB2-18Onvp6dPhCP8b-5" value="" style="shape=tableRow;horizontal=0;startSize=0;swimlaneHead=0;swimlaneBody=0;fillColor=none;collapsible=0;dropTarget=0;points=[[0,0.5],[1,0.5]];portConstraint=eastwest;top=0;left=0;right=0;bottom=0;" vertex="1" parent="qWBB2-18Onvp6dPhCP8b-1">
          <mxGeometry y="60" width="180" height="30" as="geometry" />
        </mxCell>
        <mxCell id="qWBB2-18Onvp6dPhCP8b-6" value="" style="shape=partialRectangle;connectable=0;fillColor=none;top=0;left=0;bottom=0;right=0;editable=1;overflow=hidden;whiteSpace=wrap;html=1;" vertex="1" parent="qWBB2-18Onvp6dPhCP8b-5">
          <mxGeometry width="30" height="30" as="geometry">
            <mxRectangle width="30" height="30" as="alternateBounds" />
          </mxGeometry>
        </mxCell>
        <mxCell id="qWBB2-18Onvp6dPhCP8b-7" value="Name" style="shape=partialRectangle;connectable=0;fillColor=none;top=0;left=0;bottom=0;right=0;align=left;spacingLeft=6;overflow=hidden;whiteSpace=wrap;html=1;" vertex="1" parent="qWBB2-18Onvp6dPhCP8b-5">
          <mxGeometry x="30" width="150" height="30" as="geometry">
            <mxRectangle width="150" height="30" as="alternateBounds" />
          </mxGeometry>
        </mxCell>
        <mxCell id="qWBB2-18Onvp6dPhCP8b-8" value="" style="shape=tableRow;horizontal=0;startSize=0;swimlaneHead=0;swimlaneBody=0;fillColor=none;collapsible=0;dropTarget=0;points=[[0,0.5],[1,0.5]];portConstraint=eastwest;top=0;left=0;right=0;bottom=0;" vertex="1" parent="qWBB2-18Onvp6dPhCP8b-1">
          <mxGeometry y="90" width="180" height="30" as="geometry" />
        </mxCell>
        <mxCell id="qWBB2-18Onvp6dPhCP8b-9" value="" style="shape=partialRectangle;connectable=0;fillColor=none;top=0;left=0;bottom=0;right=0;editable=1;overflow=hidden;whiteSpace=wrap;html=1;" vertex="1" parent="qWBB2-18Onvp6dPhCP8b-8">
          <mxGeometry width="30" height="30" as="geometry">
            <mxRectangle width="30" height="30" as="alternateBounds" />
          </mxGeometry>
        </mxCell>
        <mxCell id="qWBB2-18Onvp6dPhCP8b-10" value="Email" style="shape=partialRectangle;connectable=0;fillColor=none;top=0;left=0;bottom=0;right=0;align=left;spacingLeft=6;overflow=hidden;whiteSpace=wrap;html=1;" vertex="1" parent="qWBB2-18Onvp6dPhCP8b-8">
          <mxGeometry x="30" width="150" height="30" as="geometry">
            <mxRectangle width="150" height="30" as="alternateBounds" />
          </mxGeometry>
        </mxCell>
        <mxCell id="qWBB2-18Onvp6dPhCP8b-56" value="" style="shape=tableRow;horizontal=0;startSize=0;swimlaneHead=0;swimlaneBody=0;fillColor=none;collapsible=0;dropTarget=0;points=[[0,0.5],[1,0.5]];portConstraint=eastwest;top=0;left=0;right=0;bottom=0;" vertex="1" parent="qWBB2-18Onvp6dPhCP8b-1">
          <mxGeometry y="120" width="180" height="30" as="geometry" />
        </mxCell>
        <mxCell id="qWBB2-18Onvp6dPhCP8b-57" value="" style="shape=partialRectangle;connectable=0;fillColor=none;top=0;left=0;bottom=0;right=0;editable=1;overflow=hidden;whiteSpace=wrap;html=1;" vertex="1" parent="qWBB2-18Onvp6dPhCP8b-56">
          <mxGeometry width="30" height="30" as="geometry">
            <mxRectangle width="30" height="30" as="alternateBounds" />
          </mxGeometry>
        </mxCell>
        <mxCell id="qWBB2-18Onvp6dPhCP8b-58" value="Phone" style="shape=partialRectangle;connectable=0;fillColor=none;top=0;left=0;bottom=0;right=0;align=left;spacingLeft=6;overflow=hidden;whiteSpace=wrap;html=1;" vertex="1" parent="qWBB2-18Onvp6dPhCP8b-56">
          <mxGeometry x="30" width="150" height="30" as="geometry">
            <mxRectangle width="150" height="30" as="alternateBounds" />
          </mxGeometry>
        </mxCell>
        <mxCell id="qWBB2-18Onvp6dPhCP8b-98" value="" style="shape=tableRow;horizontal=0;startSize=0;swimlaneHead=0;swimlaneBody=0;fillColor=none;collapsible=0;dropTarget=0;points=[[0,0.5],[1,0.5]];portConstraint=eastwest;top=0;left=0;right=0;bottom=0;" vertex="1" parent="qWBB2-18Onvp6dPhCP8b-1">
          <mxGeometry y="150" width="180" height="30" as="geometry" />
        </mxCell>
        <mxCell id="qWBB2-18Onvp6dPhCP8b-99" value="" style="shape=partialRectangle;connectable=0;fillColor=none;top=0;left=0;bottom=0;right=0;editable=1;overflow=hidden;whiteSpace=wrap;html=1;" vertex="1" parent="qWBB2-18Onvp6dPhCP8b-98">
          <mxGeometry width="30" height="30" as="geometry">
            <mxRectangle width="30" height="30" as="alternateBounds" />
          </mxGeometry>
        </mxCell>
        <mxCell id="qWBB2-18Onvp6dPhCP8b-100" value="Address" style="shape=partialRectangle;connectable=0;fillColor=none;top=0;left=0;bottom=0;right=0;align=left;spacingLeft=6;overflow=hidden;whiteSpace=wrap;html=1;" vertex="1" parent="qWBB2-18Onvp6dPhCP8b-98">
          <mxGeometry x="30" width="150" height="30" as="geometry">
            <mxRectangle width="150" height="30" as="alternateBounds" />
          </mxGeometry>
        </mxCell>
        <mxCell id="qWBB2-18Onvp6dPhCP8b-14" value="Borrowing" style="shape=rhombus;perimeter=rhombusPerimeter;whiteSpace=wrap;html=1;align=center;" vertex="1" parent="1">
          <mxGeometry x="370" y="90" width="80" height="40" as="geometry" />
        </mxCell>
        <mxCell id="qWBB2-18Onvp6dPhCP8b-15" value="Borrow" style="shape=table;startSize=30;container=1;collapsible=1;childLayout=tableLayout;fixedRows=1;rowLines=0;fontStyle=1;align=center;resizeLast=1;html=1;" vertex="1" parent="1">
          <mxGeometry x="530" y="50" width="180" height="210" as="geometry" />
        </mxCell>
        <mxCell id="qWBB2-18Onvp6dPhCP8b-16" value="" style="shape=tableRow;horizontal=0;startSize=0;swimlaneHead=0;swimlaneBody=0;fillColor=none;collapsible=0;dropTarget=0;points=[[0,0.5],[1,0.5]];portConstraint=eastwest;top=0;left=0;right=0;bottom=1;" vertex="1" parent="qWBB2-18Onvp6dPhCP8b-15">
          <mxGeometry y="30" width="180" height="30" as="geometry" />
        </mxCell>
        <mxCell id="qWBB2-18Onvp6dPhCP8b-17" value="PK" style="shape=partialRectangle;connectable=0;fillColor=none;top=0;left=0;bottom=0;right=0;fontStyle=1;overflow=hidden;whiteSpace=wrap;html=1;" vertex="1" parent="qWBB2-18Onvp6dPhCP8b-16">
          <mxGeometry width="30" height="30" as="geometry">
            <mxRectangle width="30" height="30" as="alternateBounds" />
          </mxGeometry>
        </mxCell>
        <mxCell id="qWBB2-18Onvp6dPhCP8b-18" value="BorrowID" style="shape=partialRectangle;connectable=0;fillColor=none;top=0;left=0;bottom=0;right=0;align=left;spacingLeft=6;fontStyle=5;overflow=hidden;whiteSpace=wrap;html=1;" vertex="1" parent="qWBB2-18Onvp6dPhCP8b-16">
          <mxGeometry x="30" width="150" height="30" as="geometry">
            <mxRectangle width="150" height="30" as="alternateBounds" />
          </mxGeometry>
        </mxCell>
        <mxCell id="qWBB2-18Onvp6dPhCP8b-19" value="" style="shape=tableRow;horizontal=0;startSize=0;swimlaneHead=0;swimlaneBody=0;fillColor=none;collapsible=0;dropTarget=0;points=[[0,0.5],[1,0.5]];portConstraint=eastwest;top=0;left=0;right=0;bottom=0;" vertex="1" parent="qWBB2-18Onvp6dPhCP8b-15">
          <mxGeometry y="60" width="180" height="30" as="geometry" />
        </mxCell>
        <mxCell id="qWBB2-18Onvp6dPhCP8b-20" value="FK" style="shape=partialRectangle;connectable=0;fillColor=none;top=0;left=0;bottom=0;right=0;editable=1;overflow=hidden;whiteSpace=wrap;html=1;" vertex="1" parent="qWBB2-18Onvp6dPhCP8b-19">
          <mxGeometry width="30" height="30" as="geometry">
            <mxRectangle width="30" height="30" as="alternateBounds" />
          </mxGeometry>
        </mxCell>
        <mxCell id="qWBB2-18Onvp6dPhCP8b-21" value="StudentID" style="shape=partialRectangle;connectable=0;fillColor=none;top=0;left=0;bottom=0;right=0;align=left;spacingLeft=6;overflow=hidden;whiteSpace=wrap;html=1;" vertex="1" parent="qWBB2-18Onvp6dPhCP8b-19">
          <mxGeometry x="30" width="150" height="30" as="geometry">
            <mxRectangle width="150" height="30" as="alternateBounds" />
          </mxGeometry>
        </mxCell>
        <mxCell id="qWBB2-18Onvp6dPhCP8b-171" value="" style="shape=tableRow;horizontal=0;startSize=0;swimlaneHead=0;swimlaneBody=0;fillColor=none;collapsible=0;dropTarget=0;points=[[0,0.5],[1,0.5]];portConstraint=eastwest;top=0;left=0;right=0;bottom=0;" vertex="1" parent="qWBB2-18Onvp6dPhCP8b-15">
          <mxGeometry y="90" width="180" height="30" as="geometry" />
        </mxCell>
        <mxCell id="qWBB2-18Onvp6dPhCP8b-172" value="FK" style="shape=partialRectangle;connectable=0;fillColor=none;top=0;left=0;bottom=0;right=0;editable=1;overflow=hidden;whiteSpace=wrap;html=1;" vertex="1" parent="qWBB2-18Onvp6dPhCP8b-171">
          <mxGeometry width="30" height="30" as="geometry">
            <mxRectangle width="30" height="30" as="alternateBounds" />
          </mxGeometry>
        </mxCell>
        <mxCell id="qWBB2-18Onvp6dPhCP8b-173" value="ISBN" style="shape=partialRectangle;connectable=0;fillColor=none;top=0;left=0;bottom=0;right=0;align=left;spacingLeft=6;overflow=hidden;whiteSpace=wrap;html=1;" vertex="1" parent="qWBB2-18Onvp6dPhCP8b-171">
          <mxGeometry x="30" width="150" height="30" as="geometry">
            <mxRectangle width="150" height="30" as="alternateBounds" />
          </mxGeometry>
        </mxCell>
        <mxCell id="qWBB2-18Onvp6dPhCP8b-176" value="" style="shape=tableRow;horizontal=0;startSize=0;swimlaneHead=0;swimlaneBody=0;fillColor=none;collapsible=0;dropTarget=0;points=[[0,0.5],[1,0.5]];portConstraint=eastwest;top=0;left=0;right=0;bottom=0;" vertex="1" parent="qWBB2-18Onvp6dPhCP8b-15">
          <mxGeometry y="120" width="180" height="30" as="geometry" />
        </mxCell>
        <mxCell id="qWBB2-18Onvp6dPhCP8b-177" value="" style="shape=partialRectangle;connectable=0;fillColor=none;top=0;left=0;bottom=0;right=0;editable=1;overflow=hidden;whiteSpace=wrap;html=1;" vertex="1" parent="qWBB2-18Onvp6dPhCP8b-176">
          <mxGeometry width="30" height="30" as="geometry">
            <mxRectangle width="30" height="30" as="alternateBounds" />
          </mxGeometry>
        </mxCell>
        <mxCell id="qWBB2-18Onvp6dPhCP8b-178" value="BorrowDate" style="shape=partialRectangle;connectable=0;fillColor=none;top=0;left=0;bottom=0;right=0;align=left;spacingLeft=6;overflow=hidden;whiteSpace=wrap;html=1;" vertex="1" parent="qWBB2-18Onvp6dPhCP8b-176">
          <mxGeometry x="30" width="150" height="30" as="geometry">
            <mxRectangle width="150" height="30" as="alternateBounds" />
          </mxGeometry>
        </mxCell>
        <mxCell id="qWBB2-18Onvp6dPhCP8b-179" value="" style="shape=tableRow;horizontal=0;startSize=0;swimlaneHead=0;swimlaneBody=0;fillColor=none;collapsible=0;dropTarget=0;points=[[0,0.5],[1,0.5]];portConstraint=eastwest;top=0;left=0;right=0;bottom=0;" vertex="1" parent="qWBB2-18Onvp6dPhCP8b-15">
          <mxGeometry y="150" width="180" height="30" as="geometry" />
        </mxCell>
        <mxCell id="qWBB2-18Onvp6dPhCP8b-180" value="" style="shape=partialRectangle;connectable=0;fillColor=none;top=0;left=0;bottom=0;right=0;editable=1;overflow=hidden;whiteSpace=wrap;html=1;" vertex="1" parent="qWBB2-18Onvp6dPhCP8b-179">
          <mxGeometry width="30" height="30" as="geometry">
            <mxRectangle width="30" height="30" as="alternateBounds" />
          </mxGeometry>
        </mxCell>
        <mxCell id="qWBB2-18Onvp6dPhCP8b-181" value="DueDate" style="shape=partialRectangle;connectable=0;fillColor=none;top=0;left=0;bottom=0;right=0;align=left;spacingLeft=6;overflow=hidden;whiteSpace=wrap;html=1;" vertex="1" parent="qWBB2-18Onvp6dPhCP8b-179">
          <mxGeometry x="30" width="150" height="30" as="geometry">
            <mxRectangle width="150" height="30" as="alternateBounds" />
          </mxGeometry>
        </mxCell>
        <mxCell id="qWBB2-18Onvp6dPhCP8b-182" value="" style="shape=tableRow;horizontal=0;startSize=0;swimlaneHead=0;swimlaneBody=0;fillColor=none;collapsible=0;dropTarget=0;points=[[0,0.5],[1,0.5]];portConstraint=eastwest;top=0;left=0;right=0;bottom=0;" vertex="1" parent="qWBB2-18Onvp6dPhCP8b-15">
          <mxGeometry y="180" width="180" height="30" as="geometry" />
        </mxCell>
        <mxCell id="qWBB2-18Onvp6dPhCP8b-183" value="" style="shape=partialRectangle;connectable=0;fillColor=none;top=0;left=0;bottom=0;right=0;editable=1;overflow=hidden;whiteSpace=wrap;html=1;" vertex="1" parent="qWBB2-18Onvp6dPhCP8b-182">
          <mxGeometry width="30" height="30" as="geometry">
            <mxRectangle width="30" height="30" as="alternateBounds" />
          </mxGeometry>
        </mxCell>
        <mxCell id="qWBB2-18Onvp6dPhCP8b-184" value="ReturnDate" style="shape=partialRectangle;connectable=0;fillColor=none;top=0;left=0;bottom=0;right=0;align=left;spacingLeft=6;overflow=hidden;whiteSpace=wrap;html=1;" vertex="1" parent="qWBB2-18Onvp6dPhCP8b-182">
          <mxGeometry x="30" width="150" height="30" as="geometry">
            <mxRectangle width="150" height="30" as="alternateBounds" />
          </mxGeometry>
        </mxCell>
        <mxCell id="qWBB2-18Onvp6dPhCP8b-29" value="" style="endArrow=none;html=1;rounded=0;" edge="1" parent="1">
          <mxGeometry relative="1" as="geometry">
            <mxPoint x="300" y="110" as="sourcePoint" />
            <mxPoint x="370" y="109.71000000000004" as="targetPoint" />
          </mxGeometry>
        </mxCell>
        <mxCell id="qWBB2-18Onvp6dPhCP8b-30" value="1" style="resizable=0;html=1;whiteSpace=wrap;align=left;verticalAlign=bottom;" connectable="0" vertex="1" parent="qWBB2-18Onvp6dPhCP8b-29">
          <mxGeometry x="-1" relative="1" as="geometry">
            <mxPoint x="5" as="offset" />
          </mxGeometry>
        </mxCell>
        <mxCell id="qWBB2-18Onvp6dPhCP8b-31" value="N" style="resizable=0;html=1;whiteSpace=wrap;align=right;verticalAlign=bottom;" connectable="0" vertex="1" parent="qWBB2-18Onvp6dPhCP8b-29">
          <mxGeometry x="1" relative="1" as="geometry">
            <mxPoint x="156" as="offset" />
          </mxGeometry>
        </mxCell>
        <mxCell id="qWBB2-18Onvp6dPhCP8b-32" value="" style="endArrow=none;html=1;rounded=0;entryX=0;entryY=0.007;entryDx=0;entryDy=0;entryPerimeter=0;" edge="1" parent="1" target="qWBB2-18Onvp6dPhCP8b-19">
          <mxGeometry relative="1" as="geometry">
            <mxPoint x="450" y="109.92000000000007" as="sourcePoint" />
            <mxPoint x="500" y="110" as="targetPoint" />
          </mxGeometry>
        </mxCell>
        <mxCell id="qWBB2-18Onvp6dPhCP8b-35" value="" style="shape=rhombus;perimeter=rhombusPerimeter;whiteSpace=wrap;html=1;align=center;rounded=0;shadow=0;" vertex="1" parent="1">
          <mxGeometry x="560" y="325" width="80" height="40" as="geometry" />
        </mxCell>
        <mxCell id="qWBB2-18Onvp6dPhCP8b-36" value="Book" style="shape=table;startSize=30;container=1;collapsible=1;childLayout=tableLayout;fixedRows=1;rowLines=0;fontStyle=1;align=center;resizeLast=1;html=1;" vertex="1" parent="1">
          <mxGeometry x="320" y="210" width="180" height="210" as="geometry" />
        </mxCell>
        <mxCell id="qWBB2-18Onvp6dPhCP8b-37" value="" style="shape=tableRow;horizontal=0;startSize=0;swimlaneHead=0;swimlaneBody=0;fillColor=none;collapsible=0;dropTarget=0;points=[[0,0.5],[1,0.5]];portConstraint=eastwest;top=0;left=0;right=0;bottom=1;" vertex="1" parent="qWBB2-18Onvp6dPhCP8b-36">
          <mxGeometry y="30" width="180" height="30" as="geometry" />
        </mxCell>
        <mxCell id="qWBB2-18Onvp6dPhCP8b-38" value="PK" style="shape=partialRectangle;connectable=0;fillColor=none;top=0;left=0;bottom=0;right=0;fontStyle=1;overflow=hidden;whiteSpace=wrap;html=1;" vertex="1" parent="qWBB2-18Onvp6dPhCP8b-37">
          <mxGeometry width="30" height="30" as="geometry">
            <mxRectangle width="30" height="30" as="alternateBounds" />
          </mxGeometry>
        </mxCell>
        <mxCell id="qWBB2-18Onvp6dPhCP8b-39" value="ISBN" style="shape=partialRectangle;connectable=0;fillColor=none;top=0;left=0;bottom=0;right=0;align=left;spacingLeft=6;fontStyle=5;overflow=hidden;whiteSpace=wrap;html=1;" vertex="1" parent="qWBB2-18Onvp6dPhCP8b-37">
          <mxGeometry x="30" width="150" height="30" as="geometry">
            <mxRectangle width="150" height="30" as="alternateBounds" />
          </mxGeometry>
        </mxCell>
        <mxCell id="qWBB2-18Onvp6dPhCP8b-40" value="" style="shape=tableRow;horizontal=0;startSize=0;swimlaneHead=0;swimlaneBody=0;fillColor=none;collapsible=0;dropTarget=0;points=[[0,0.5],[1,0.5]];portConstraint=eastwest;top=0;left=0;right=0;bottom=0;" vertex="1" parent="qWBB2-18Onvp6dPhCP8b-36">
          <mxGeometry y="60" width="180" height="30" as="geometry" />
        </mxCell>
        <mxCell id="qWBB2-18Onvp6dPhCP8b-41" value="" style="shape=partialRectangle;connectable=0;fillColor=none;top=0;left=0;bottom=0;right=0;editable=1;overflow=hidden;whiteSpace=wrap;html=1;" vertex="1" parent="qWBB2-18Onvp6dPhCP8b-40">
          <mxGeometry width="30" height="30" as="geometry">
            <mxRectangle width="30" height="30" as="alternateBounds" />
          </mxGeometry>
        </mxCell>
        <mxCell id="qWBB2-18Onvp6dPhCP8b-42" value="Title" style="shape=partialRectangle;connectable=0;fillColor=none;top=0;left=0;bottom=0;right=0;align=left;spacingLeft=6;overflow=hidden;whiteSpace=wrap;html=1;" vertex="1" parent="qWBB2-18Onvp6dPhCP8b-40">
          <mxGeometry x="30" width="150" height="30" as="geometry">
            <mxRectangle width="150" height="30" as="alternateBounds" />
          </mxGeometry>
        </mxCell>
        <mxCell id="qWBB2-18Onvp6dPhCP8b-43" value="" style="shape=tableRow;horizontal=0;startSize=0;swimlaneHead=0;swimlaneBody=0;fillColor=none;collapsible=0;dropTarget=0;points=[[0,0.5],[1,0.5]];portConstraint=eastwest;top=0;left=0;right=0;bottom=0;" vertex="1" parent="qWBB2-18Onvp6dPhCP8b-36">
          <mxGeometry y="90" width="180" height="30" as="geometry" />
        </mxCell>
        <mxCell id="qWBB2-18Onvp6dPhCP8b-44" value="" style="shape=partialRectangle;connectable=0;fillColor=none;top=0;left=0;bottom=0;right=0;editable=1;overflow=hidden;whiteSpace=wrap;html=1;" vertex="1" parent="qWBB2-18Onvp6dPhCP8b-43">
          <mxGeometry width="30" height="30" as="geometry">
            <mxRectangle width="30" height="30" as="alternateBounds" />
          </mxGeometry>
        </mxCell>
        <mxCell id="qWBB2-18Onvp6dPhCP8b-45" value="Author" style="shape=partialRectangle;connectable=0;fillColor=none;top=0;left=0;bottom=0;right=0;align=left;spacingLeft=6;overflow=hidden;whiteSpace=wrap;html=1;" vertex="1" parent="qWBB2-18Onvp6dPhCP8b-43">
          <mxGeometry x="30" width="150" height="30" as="geometry">
            <mxRectangle width="150" height="30" as="alternateBounds" />
          </mxGeometry>
        </mxCell>
        <mxCell id="qWBB2-18Onvp6dPhCP8b-109" value="" style="shape=tableRow;horizontal=0;startSize=0;swimlaneHead=0;swimlaneBody=0;fillColor=none;collapsible=0;dropTarget=0;points=[[0,0.5],[1,0.5]];portConstraint=eastwest;top=0;left=0;right=0;bottom=0;" vertex="1" parent="qWBB2-18Onvp6dPhCP8b-36">
          <mxGeometry y="120" width="180" height="30" as="geometry" />
        </mxCell>
        <mxCell id="qWBB2-18Onvp6dPhCP8b-110" value="" style="shape=partialRectangle;connectable=0;fillColor=none;top=0;left=0;bottom=0;right=0;editable=1;overflow=hidden;whiteSpace=wrap;html=1;" vertex="1" parent="qWBB2-18Onvp6dPhCP8b-109">
          <mxGeometry width="30" height="30" as="geometry">
            <mxRectangle width="30" height="30" as="alternateBounds" />
          </mxGeometry>
        </mxCell>
        <mxCell id="qWBB2-18Onvp6dPhCP8b-111" value="Genre" style="shape=partialRectangle;connectable=0;fillColor=none;top=0;left=0;bottom=0;right=0;align=left;spacingLeft=6;overflow=hidden;whiteSpace=wrap;html=1;" vertex="1" parent="qWBB2-18Onvp6dPhCP8b-109">
          <mxGeometry x="30" width="150" height="30" as="geometry">
            <mxRectangle width="150" height="30" as="alternateBounds" />
          </mxGeometry>
        </mxCell>
        <mxCell id="qWBB2-18Onvp6dPhCP8b-112" value="" style="shape=tableRow;horizontal=0;startSize=0;swimlaneHead=0;swimlaneBody=0;fillColor=none;collapsible=0;dropTarget=0;points=[[0,0.5],[1,0.5]];portConstraint=eastwest;top=0;left=0;right=0;bottom=0;" vertex="1" parent="qWBB2-18Onvp6dPhCP8b-36">
          <mxGeometry y="150" width="180" height="30" as="geometry" />
        </mxCell>
        <mxCell id="qWBB2-18Onvp6dPhCP8b-113" value="" style="shape=partialRectangle;connectable=0;fillColor=none;top=0;left=0;bottom=0;right=0;editable=1;overflow=hidden;whiteSpace=wrap;html=1;" vertex="1" parent="qWBB2-18Onvp6dPhCP8b-112">
          <mxGeometry width="30" height="30" as="geometry">
            <mxRectangle width="30" height="30" as="alternateBounds" />
          </mxGeometry>
        </mxCell>
        <mxCell id="qWBB2-18Onvp6dPhCP8b-114" value="TotalCopies" style="shape=partialRectangle;connectable=0;fillColor=none;top=0;left=0;bottom=0;right=0;align=left;spacingLeft=6;overflow=hidden;whiteSpace=wrap;html=1;" vertex="1" parent="qWBB2-18Onvp6dPhCP8b-112">
          <mxGeometry x="30" width="150" height="30" as="geometry">
            <mxRectangle width="150" height="30" as="alternateBounds" />
          </mxGeometry>
        </mxCell>
        <mxCell id="qWBB2-18Onvp6dPhCP8b-115" value="" style="shape=tableRow;horizontal=0;startSize=0;swimlaneHead=0;swimlaneBody=0;fillColor=none;collapsible=0;dropTarget=0;points=[[0,0.5],[1,0.5]];portConstraint=eastwest;top=0;left=0;right=0;bottom=0;" vertex="1" parent="qWBB2-18Onvp6dPhCP8b-36">
          <mxGeometry y="180" width="180" height="30" as="geometry" />
        </mxCell>
        <mxCell id="qWBB2-18Onvp6dPhCP8b-116" value="" style="shape=partialRectangle;connectable=0;fillColor=none;top=0;left=0;bottom=0;right=0;editable=1;overflow=hidden;whiteSpace=wrap;html=1;" vertex="1" parent="qWBB2-18Onvp6dPhCP8b-115">
          <mxGeometry width="30" height="30" as="geometry">
            <mxRectangle width="30" height="30" as="alternateBounds" />
          </mxGeometry>
        </mxCell>
        <mxCell id="qWBB2-18Onvp6dPhCP8b-117" value="AvailableCopies" style="shape=partialRectangle;connectable=0;fillColor=none;top=0;left=0;bottom=0;right=0;align=left;spacingLeft=6;overflow=hidden;whiteSpace=wrap;html=1;" vertex="1" parent="qWBB2-18Onvp6dPhCP8b-115">
          <mxGeometry x="30" width="150" height="30" as="geometry">
            <mxRectangle width="150" height="30" as="alternateBounds" />
          </mxGeometry>
        </mxCell>
        <mxCell id="qWBB2-18Onvp6dPhCP8b-49" value="" style="endArrow=none;html=1;rounded=0;entryX=0;entryY=0.5;entryDx=0;entryDy=0;exitX=1;exitY=0.5;exitDx=0;exitDy=0;" edge="1" parent="1" source="qWBB2-18Onvp6dPhCP8b-109" target="qWBB2-18Onvp6dPhCP8b-35">
          <mxGeometry relative="1" as="geometry">
            <mxPoint x="520" y="280" as="sourcePoint" />
            <mxPoint x="660" y="269.96000000000004" as="targetPoint" />
          </mxGeometry>
        </mxCell>
        <mxCell id="qWBB2-18Onvp6dPhCP8b-53" value="N" style="text;html=1;align=center;verticalAlign=middle;resizable=0;points=[];autosize=1;strokeColor=none;fillColor=none;" vertex="1" parent="1">
          <mxGeometry x="596" y="272" width="30" height="30" as="geometry" />
        </mxCell>
        <mxCell id="qWBB2-18Onvp6dPhCP8b-54" value="N" style="text;html=1;align=center;verticalAlign=middle;resizable=0;points=[];autosize=1;strokeColor=none;fillColor=none;" vertex="1" parent="1">
          <mxGeometry x="497" y="342" width="30" height="30" as="geometry" />
        </mxCell>
        <mxCell id="qWBB2-18Onvp6dPhCP8b-101" value="&lt;font style=&quot;font-size: 6px;&quot;&gt;INT AUTO_INCREAMENT&lt;/font&gt;&lt;span id=&quot;docs-internal-guid-874954c5-7fff-0630-4969-f4d9ea3c387d&quot;&gt;&lt;/span&gt;" style="text;html=1;align=center;verticalAlign=middle;resizable=0;points=[];autosize=1;strokeColor=none;fillColor=none;" vertex="1" parent="1">
          <mxGeometry x="216" y="80" width="90" height="30" as="geometry" />
        </mxCell>
        <mxCell id="qWBB2-18Onvp6dPhCP8b-104" value="&lt;font style=&quot;font-size: 7px;&quot;&gt;VARCHAR (255) NOT NULL&lt;/font&gt;&lt;span id=&quot;docs-internal-guid-874954c5-7fff-0630-4969-f4d9ea3c387d&quot;&gt;&lt;/span&gt;" style="text;html=1;align=center;verticalAlign=middle;resizable=0;points=[];autosize=1;strokeColor=none;fillColor=none;" vertex="1" parent="1">
          <mxGeometry x="198" y="110" width="110" height="30" as="geometry" />
        </mxCell>
        <mxCell id="qWBB2-18Onvp6dPhCP8b-106" value="&lt;font style=&quot;font-size: 7px;&quot;&gt;VARCHAR (255) NOT NULL&lt;/font&gt;&lt;span id=&quot;docs-internal-guid-874954c5-7fff-0630-4969-f4d9ea3c387d&quot;&gt;&lt;/span&gt;" style="text;html=1;align=center;verticalAlign=middle;resizable=0;points=[];autosize=1;strokeColor=none;fillColor=none;" vertex="1" parent="1">
          <mxGeometry x="198" y="140" width="110" height="30" as="geometry" />
        </mxCell>
        <mxCell id="qWBB2-18Onvp6dPhCP8b-107" value="&lt;font style=&quot;font-size: 7px;&quot;&gt;VARCHAR (15)&lt;/font&gt;&lt;span id=&quot;docs-internal-guid-874954c5-7fff-0630-4969-f4d9ea3c387d&quot;&gt;&lt;/span&gt;" style="text;html=1;align=center;verticalAlign=middle;resizable=0;points=[];autosize=1;strokeColor=none;fillColor=none;" vertex="1" parent="1">
          <mxGeometry x="198" y="170" width="70" height="30" as="geometry" />
        </mxCell>
        <mxCell id="qWBB2-18Onvp6dPhCP8b-108" value="&lt;font style=&quot;font-size: 7px;&quot;&gt;TEXT&lt;/font&gt;&lt;span id=&quot;docs-internal-guid-874954c5-7fff-0630-4969-f4d9ea3c387d&quot;&gt;&lt;/span&gt;" style="text;html=1;align=center;verticalAlign=middle;resizable=0;points=[];autosize=1;strokeColor=none;fillColor=none;" vertex="1" parent="1">
          <mxGeometry x="200" y="200" width="40" height="30" as="geometry" />
        </mxCell>
        <mxCell id="qWBB2-18Onvp6dPhCP8b-118" value="&lt;font style=&quot;font-size: 6px;&quot;&gt;INT AUTO_INCREAMENT&lt;/font&gt;&lt;span id=&quot;docs-internal-guid-874954c5-7fff-0630-4969-f4d9ea3c387d&quot;&gt;&lt;/span&gt;" style="text;html=1;align=center;verticalAlign=middle;resizable=0;points=[];autosize=1;strokeColor=none;fillColor=none;" vertex="1" parent="1">
          <mxGeometry x="626" y="80" width="90" height="30" as="geometry" />
        </mxCell>
        <mxCell id="qWBB2-18Onvp6dPhCP8b-119" value="&lt;font style=&quot;font-size: 7px;&quot;&gt;VARCHAR (30)&lt;/font&gt;&lt;span id=&quot;docs-internal-guid-874954c5-7fff-0630-4969-f4d9ea3c387d&quot;&gt;&lt;/span&gt;" style="text;html=1;align=center;verticalAlign=middle;resizable=0;points=[];autosize=1;strokeColor=none;fillColor=none;" vertex="1" parent="1">
          <mxGeometry x="410" y="240" width="70" height="30" as="geometry" />
        </mxCell>
        <mxCell id="qWBB2-18Onvp6dPhCP8b-120" value="&lt;font style=&quot;font-size: 7px;&quot;&gt;VARCHAR (255) NOT NULL&lt;/font&gt;&lt;span id=&quot;docs-internal-guid-874954c5-7fff-0630-4969-f4d9ea3c387d&quot;&gt;&lt;/span&gt;" style="text;html=1;align=center;verticalAlign=middle;resizable=0;points=[];autosize=1;strokeColor=none;fillColor=none;" vertex="1" parent="1">
          <mxGeometry x="396" y="270" width="110" height="30" as="geometry" />
        </mxCell>
        <mxCell id="qWBB2-18Onvp6dPhCP8b-121" value="&lt;font style=&quot;font-size: 7px;&quot;&gt;VARCHAR (255) NOT NULL&lt;/font&gt;&lt;span id=&quot;docs-internal-guid-874954c5-7fff-0630-4969-f4d9ea3c387d&quot;&gt;&lt;/span&gt;" style="text;html=1;align=center;verticalAlign=middle;resizable=0;points=[];autosize=1;strokeColor=none;fillColor=none;" vertex="1" parent="1">
          <mxGeometry x="396" y="300" width="110" height="30" as="geometry" />
        </mxCell>
        <mxCell id="qWBB2-18Onvp6dPhCP8b-122" value="&lt;font style=&quot;font-size: 7px;&quot;&gt;VARCHAR (50)&lt;/font&gt;&lt;span id=&quot;docs-internal-guid-874954c5-7fff-0630-4969-f4d9ea3c387d&quot;&gt;&lt;/span&gt;" style="text;html=1;align=center;verticalAlign=middle;resizable=0;points=[];autosize=1;strokeColor=none;fillColor=none;" vertex="1" parent="1">
          <mxGeometry x="437" y="330" width="70" height="30" as="geometry" />
        </mxCell>
        <mxCell id="qWBB2-18Onvp6dPhCP8b-123" value="&lt;font style=&quot;font-size: 7px;&quot;&gt;INT NOT NOLL&lt;/font&gt;&lt;span id=&quot;docs-internal-guid-874954c5-7fff-0630-4969-f4d9ea3c387d&quot;&gt;&lt;/span&gt;" style="text;html=1;align=center;verticalAlign=middle;resizable=0;points=[];autosize=1;strokeColor=none;fillColor=none;" vertex="1" parent="1">
          <mxGeometry x="437" y="360" width="70" height="30" as="geometry" />
        </mxCell>
        <mxCell id="qWBB2-18Onvp6dPhCP8b-124" value="&lt;font style=&quot;font-size: 7px;&quot;&gt;INT NOT NOLL&lt;/font&gt;&lt;span id=&quot;docs-internal-guid-874954c5-7fff-0630-4969-f4d9ea3c387d&quot;&gt;&lt;/span&gt;" style="text;html=1;align=center;verticalAlign=middle;resizable=0;points=[];autosize=1;strokeColor=none;fillColor=none;" vertex="1" parent="1">
          <mxGeometry x="437" y="390" width="70" height="30" as="geometry" />
        </mxCell>
        <mxCell id="qWBB2-18Onvp6dPhCP8b-174" value="&lt;font style=&quot;font-size: 7px;&quot;&gt;VARCHAR (30)&lt;/font&gt;&lt;span id=&quot;docs-internal-guid-874954c5-7fff-0630-4969-f4d9ea3c387d&quot;&gt;&lt;/span&gt;" style="text;html=1;align=center;verticalAlign=middle;resizable=0;points=[];autosize=1;strokeColor=none;fillColor=none;" vertex="1" parent="1">
          <mxGeometry x="640" y="140" width="70" height="30" as="geometry" />
        </mxCell>
        <mxCell id="qWBB2-18Onvp6dPhCP8b-175" value="&lt;font style=&quot;font-size: 7px;&quot;&gt;INT&lt;/font&gt;&lt;span id=&quot;docs-internal-guid-874954c5-7fff-0630-4969-f4d9ea3c387d&quot;&gt;&lt;/span&gt;" style="text;html=1;align=center;verticalAlign=middle;resizable=0;points=[];autosize=1;strokeColor=none;fillColor=none;" vertex="1" parent="1">
          <mxGeometry x="660" y="110" width="30" height="30" as="geometry" />
        </mxCell>
        <mxCell id="qWBB2-18Onvp6dPhCP8b-185" value="&lt;font style=&quot;font-size: 7px;&quot;&gt;DATE NOT NULL&lt;/font&gt;&lt;span id=&quot;docs-internal-guid-874954c5-7fff-0630-4969-f4d9ea3c387d&quot;&gt;&lt;/span&gt;" style="text;html=1;align=center;verticalAlign=middle;resizable=0;points=[];autosize=1;strokeColor=none;fillColor=none;" vertex="1" parent="1">
          <mxGeometry x="635" y="170" width="80" height="30" as="geometry" />
        </mxCell>
        <mxCell id="qWBB2-18Onvp6dPhCP8b-186" value="&lt;font style=&quot;font-size: 7px;&quot;&gt;DATE NOT NULL&lt;/font&gt;&lt;span id=&quot;docs-internal-guid-874954c5-7fff-0630-4969-f4d9ea3c387d&quot;&gt;&lt;/span&gt;" style="text;html=1;align=center;verticalAlign=middle;resizable=0;points=[];autosize=1;strokeColor=none;fillColor=none;" vertex="1" parent="1">
          <mxGeometry x="635" y="200" width="80" height="30" as="geometry" />
        </mxCell>
        <mxCell id="qWBB2-18Onvp6dPhCP8b-187" value="&lt;font style=&quot;font-size: 7px;&quot;&gt;DATE&lt;/font&gt;&lt;span id=&quot;docs-internal-guid-874954c5-7fff-0630-4969-f4d9ea3c387d&quot;&gt;&lt;/span&gt;" style="text;html=1;align=center;verticalAlign=middle;resizable=0;points=[];autosize=1;strokeColor=none;fillColor=none;" vertex="1" parent="1">
          <mxGeometry x="655" y="230" width="40" height="30" as="geometry" />
        </mxCell>
        <mxCell id="qWBB2-18Onvp6dPhCP8b-193" value="" style="endArrow=none;html=1;rounded=0;exitX=0.388;exitY=0.993;exitDx=0;exitDy=0;exitPerimeter=0;entryX=0.5;entryY=0;entryDx=0;entryDy=0;" edge="1" parent="1" source="qWBB2-18Onvp6dPhCP8b-182" target="qWBB2-18Onvp6dPhCP8b-35">
          <mxGeometry relative="1" as="geometry">
            <mxPoint x="599.76" y="285" as="sourcePoint" />
            <mxPoint x="600" y="310" as="targetPoint" />
          </mxGeometry>
        </mxCell>
      </root>
    </mxGraphModel>
  </diagram>
</mxfile>
